<?xml version="1.0" ?><svg width="300px" height="300px" viewBox="0 0 300 300" id="Layer_1" style="enable-background:new 0 0 300 300;" version="1.1" xml:space="preserve" xmlns="http://www.w3.org/2000/svg" xmlns:xlink="http://www.w3.org/1999/xlink"><style type="text/css">
	.st0{fill:none;stroke:#2D3642;stroke-width:20;stroke-linecap:round;stroke-linejoin:round;}
	.st1{fill:#2D3642;}
	.st2{fill:#E0D671;}
	.st3{fill:#168C84;}
</style><title/><g><g id="Layer_1-2"><rect class="st0" height="280" width="80" x="50" y="10"/><path class="st1" d="M90,220L90,220c11,0,20,9,20,20l0,0c0,11-9,20-20,20l0,0c-11,0-20-9-20-20l0,0C70,229,79,220,90,220z"/><rect class="st2" height="130" width="20" x="80" y="60"/><rect class="st0" height="280" width="80" x="170" y="10"/><path class="st1" d="M210,220L210,220c11,0,20,9,20,20l0,0c0,11-9,20-20,20l0,0c-11,0-20-9-20-20l0,0C190,229,199,220,210,220z"/><rect class="st3" height="130" width="20" x="200" y="60"/></g></g></svg>